<?xml version="1.0" standalone="no"?>
<!DOCTYPE svg PUBLIC "-//W3C//DTD SVG 20010904//EN"
 "http://www.w3.org/TR/2001/REC-SVG-20010904/DTD/svg10.dtd">
<svg version="1.0" xmlns="http://www.w3.org/2000/svg"
 width="865.000000pt" height="865.000000pt" viewBox="0 0 865.000000 865.000000"
 preserveAspectRatio="xMidYMid meet">
<metadata>
Created by potrace 1.11, written by Peter Selinger 2001-2013
</metadata>
<g transform="translate(0.000000,865.000000) scale(0.100000,-0.100000)"
fill="#000000" stroke="none">
<path d="M645 8645 c-5 -2 -22 -6 -37 -9 -15 -3 -34 -13 -42 -22 -44 -44 61
-90 294 -129 19 -3 42 -8 50 -10 8 -2 38 -7 65 -10 28 -3 59 -7 70 -9 11 -2
49 -7 85 -11 36 -3 76 -8 90 -10 14 -2 54 -6 90 -10 36 -3 81 -8 100 -10 19
-2 60 -7 90 -10 30 -3 71 -8 90 -10 19 -3 58 -7 85 -10 28 -3 77 -10 110 -15
33 -5 83 -12 110 -15 128 -14 318 -51 465 -89 136 -35 314 -84 390 -106 449
-133 608 -183 795 -245 282 -95 315 -109 315 -139 0 -76 -344 -453 -466 -511
l-35 -17 -132 65 c-114 55 -285 152 -550 311 -112 67 -128 76 -232 131 -295
157 -555 243 -1055 351 -36 8 -78 17 -95 20 -16 2 -37 7 -45 9 -8 2 -31 6 -50
9 -19 3 -46 8 -60 11 -14 3 -43 8 -65 10 -22 3 -67 9 -99 14 -67 9 -96 5 -96
-14 0 -36 104 -74 460 -165 180 -46 419 -113 490 -136 351 -118 728 -304 965
-478 261 -192 432 -347 649 -591 372 -419 550 -791 593 -1240 17 -179 9 -473
-17 -615 -5 -30 -12 -69 -15 -86 -16 -97 -90 -344 -136 -452 -10 -23 -18 -45
-18 -47 0 -18 -135 -264 -191 -349 -103 -156 -279 -360 -297 -342 -4 3 1 28
11 54 39 102 48 154 41 237 l-6 80 40 45 c82 90 235 331 295 462 33 74 71 182
80 228 3 14 9 48 15 75 16 81 12 245 -8 322 -74 284 -292 380 -551 241 -89
-48 -128 -78 -238 -189 -209 -211 -427 -541 -478 -724 -21 -79 -27 -259 -9
-318 53 -178 164 -266 353 -282 60 -5 101 -18 103 -33 0 -4 2 -16 4 -27 2 -11
-1 -45 -8 -75 -7 -30 -12 -64 -11 -75 1 -11 2 -30 3 -42 2 -30 39 -66 111
-104 123 -65 98 -93 -85 -94 -105 0 -225 8 -305 20 -14 2 -45 7 -70 10 -125
17 -327 58 -374 76 -95 35 -132 78 -175 199 -86 243 -426 643 -533 628 -18 -2
-27 -15 -42 -58 -17 -49 -20 -89 -22 -370 -3 -424 -4 -433 -69 -399 -43 23
-112 68 -185 120 -143 102 -295 149 -470 146 -163 -4 -231 -45 -235 -145 -3
-68 20 -153 71 -259 73 -152 70 -163 -59 -247 -169 -109 -218 -188 -168 -270
25 -40 59 -65 158 -114 168 -85 183 -128 81 -240 -107 -117 -132 -330 -48
-413 25 -26 32 -28 81 -23 76 7 186 33 569 130 184 47 342 87 350 89 86 19
496 135 542 153 39 16 42 29 5 35 -37 5 -259 1 -297 -7 -14 -2 -45 -7 -70 -10
-25 -3 -55 -8 -66 -10 -12 -2 -39 -7 -60 -10 -145 -23 -315 -64 -753 -182 -74
-20 -158 -37 -185 -38 l-51 -1 -1 37 c-1 70 88 160 330 334 52 38 95 71 96 74
0 3 -71 31 -158 64 -180 67 -301 124 -352 166 -29 24 -33 32 -24 47 19 32 122
73 249 97 11 3 63 14 115 26 52 12 103 23 112 25 70 15 175 49 186 59 11 11 5
17 -30 34 -24 11 -71 29 -104 40 -120 39 -221 100 -318 191 -58 56 -107 137
-101 169 2 9 4 21 4 25 2 16 72 37 125 37 112 0 300 -50 448 -119 46 -22 159
-87 252 -145 93 -58 171 -106 173 -106 4 0 0 69 -12 200 -2 19 -6 71 -9 115
-4 44 -9 103 -11 130 -2 28 -7 82 -10 120 -3 39 -8 86 -10 105 -2 19 -7 76
-10 125 -3 50 -8 107 -11 128 -6 45 -5 45 71 -17 92 -75 114 -98 164 -170 68
-98 146 -249 231 -446 39 -91 75 -168 78 -172 9 -9 25 -12 472 -78 74 -11 146
-22 160 -25 14 -2 45 -7 70 -10 51 -7 83 -12 120 -20 14 -3 45 -8 70 -11 25
-3 61 -9 80 -14 19 -5 51 -11 70 -14 80 -13 205 -39 330 -71 36 -9 75 -18 87
-20 85 -19 503 -154 588 -190 340 -147 799 -297 836 -274 54 33 -282 204 -731
372 -376 140 -675 230 -818 246 -117 13 -138 37 -102 113 27 58 116 148 297
301 21 19 23 18 83 -20 33 -21 68 -42 78 -48 9 -5 81 -49 160 -98 245 -150
496 -261 652 -287 71 -12 250 -16 297 -6 11 2 43 8 70 11 197 28 455 125 616
232 40 26 77 52 83 58 6 5 30 26 55 45 94 75 112 105 47 80 -18 -7 -115 -50
-214 -96 -179 -82 -309 -127 -402 -140 -26 -3 -56 -8 -67 -11 -37 -9 -399 -12
-455 -3 -30 4 -75 11 -100 15 -137 21 -308 76 -406 130 -99 56 -265 169 -298
204 l-30 31 17 68 c10 37 19 74 21 82 11 41 71 201 126 335 129 315 172 432
186 511 3 15 7 30 9 34 17 28 21 215 13 615 -5 216 2 339 19 356 13 13 83 -42
204 -161 112 -109 176 -157 191 -142 26 26 -80 195 -199 318 -87 90 -128 122
-176 135 -44 12 -116 85 -158 160 -158 280 -293 493 -546 862 -41 59 -73 112
-71 117 6 19 345 355 428 424 260 219 499 333 875 417 357 80 748 86 1145 18
204 -35 522 -125 615 -173 17 -9 33 -16 37 -16 23 0 228 -111 323 -174 342
-228 739 -667 938 -1038 113 -212 160 -417 161 -708 0 -89 -13 -310 -19 -319
-1 -3 -6 -31 -10 -61 -33 -280 -184 -784 -364 -1214 -22 -54 -41 -104 -41
-111 0 -25 31 -44 103 -66 117 -34 160 -92 158 -214 0 -74 -33 -165 -105 -299
-93 -170 -116 -236 -83 -236 14 0 85 57 126 100 176 188 242 309 243 450 0
103 -38 191 -129 293 -79 89 -76 140 27 417 17 47 34 94 37 105 4 10 23 51 42
90 47 92 71 102 144 61 112 -63 144 -77 160 -70 9 3 17 14 17 23 0 28 -48 116
-89 163 -95 110 -106 157 -102 438 14 849 3 972 -107 1196 -110 227 -370 571
-617 819 -252 254 -411 361 -708 479 -188 75 -449 148 -647 181 -19 3 -46 7
-60 10 -24 4 -46 7 -140 19 -344 45 -792 37 -1070 -19 -14 -3 -41 -8 -60 -11
-57 -10 -175 -42 -350 -96 -91 -27 -180 -54 -198 -60 -54 -15 -38 -20 -762
204 -107 33 -208 64 -225 68 -16 4 -114 31 -217 59 -103 28 -198 53 -210 55
-13 2 -88 21 -168 40 -80 20 -158 39 -175 42 -16 3 -55 11 -85 19 -48 12 -303
65 -385 80 -86 15 -264 46 -295 51 -19 3 -71 12 -115 19 -79 13 -262 38 -380
51 -33 3 -69 8 -80 11 -26 5 -377 13 -390 8z m2961 -3331 c70 -29 141 -129
160 -224 9 -45 10 -173 2 -225 -36 -220 -257 -602 -388 -670 -16 -8 -39 -13
-52 -11 -13 3 -26 5 -30 5 -16 2 -7 39 20 78 15 23 48 73 74 111 62 92 88 161
95 253 7 93 -13 162 -60 206 -87 82 -214 54 -346 -76 -107 -106 -158 -229
-140 -343 12 -72 39 -120 114 -203 35 -38 72 -84 82 -103 17 -32 17 -34 0 -47
-26 -19 -133 -29 -236 -22 -97 7 -153 21 -175 43 -64 63 -46 384 31 557 134
302 468 630 695 682 59 13 103 10 154 -11z m-209 -548 c25 -21 28 -31 28 -83
0 -98 -48 -185 -166 -303 -135 -134 -201 -150 -247 -60 -26 52 -23 93 12 180
47 117 159 248 238 276 55 21 104 17 135 -10z m-104 -731 c10 -28 20 -81 21
-120 5 -142 -37 -212 -142 -236 -29 -6 -38 -4 -58 17 -19 18 -23 30 -18 51 11
49 70 196 108 271 44 87 62 91 89 17z"/>
<path d="M5798 5335 c-1 -1 -42 -5 -89 -8 -107 -7 -195 -35 -233 -73 -40 -40
-5 -53 156 -60 235 -9 367 -43 499 -129 155 -100 251 -230 349 -472 57 -140
100 -171 101 -72 0 81 -32 182 -107 338 -97 199 -215 356 -303 400 -58 30
-178 60 -270 67 -42 3 -81 7 -88 9 -6 2 -13 2 -15 0z"/>
<path d="M4281 4882 c-19 -9 -36 -22 -38 -28 -6 -20 38 -64 90 -91 59 -30 365
-135 379 -131 14 5 -66 123 -117 173 -67 65 -135 95 -214 95 -43 0 -78 -6
-100 -18z"/>
<path d="M7415 2927 c-225 -101 -554 -324 -736 -499 -273 -263 -555 -733 -604
-1008 -22 -121 5 -225 65 -250 80 -33 228 27 395 161 263 210 673 464 783 485
45 9 43 -11 -15 -127 -116 -229 -481 -711 -847 -1119 -112 -125 -357 -367
-435 -431 -77 -63 -117 -110 -104 -123 23 -22 134 14 230 76 274 178 716 688
1051 1215 205 322 316 553 329 689 5 57 4 62 -21 81 -25 20 -30 20 -84 8 -94
-22 -220 -80 -397 -184 -99 -57 -342 -216 -355 -231 -3 -3 -32 -27 -65 -52
-33 -25 -69 -54 -80 -65 -86 -80 -296 -213 -335 -213 -19 0 -33 27 -35 65 -4
71 107 280 249 469 145 192 222 281 397 456 135 135 162 160 254 233 33 26 67
54 75 60 9 7 38 28 65 47 157 107 315 241 315 267 0 19 -38 15 -95 -10z"/>
<path d="M7685 1128 c-77 -56 -275 -235 -500 -453 -132 -127 -290 -272 -410
-374 -33 -28 -84 -63 -112 -76 -61 -30 -118 -85 -152 -149 -25 -47 -23 -76 5
-76 27 0 115 48 189 104 63 47 101 81 274 245 105 99 472 464 555 552 99 105
186 215 186 235 0 17 1 18 -35 -8z"/>
<path d="M7913 1022 c-38 -32 -120 -114 -183 -182 -63 -68 -122 -131 -130
-140 -26 -28 -213 -242 -270 -310 -30 -36 -58 -67 -61 -70 -15 -13 -140 -183
-164 -223 -28 -49 -30 -92 -5 -93 50 -1 251 191 441 421 106 129 316 410 384
514 101 155 98 178 -12 83z"/>
<path d="M8216 798 c-18 -18 -66 -80 -106 -138 -63 -89 -260 -340 -294 -376
-60 -60 -185 -202 -200 -225 -21 -34 -20 -36 21 -48 61 -18 137 26 255 146
227 234 410 543 384 649 -8 32 -21 30 -60 -8z"/>
</g>
</svg>
