<?xml version="1.0" encoding="UTF-8" standalone="no"?>
<!-- Created with Inkscape (http://www.inkscape.org/) -->

<svg
   xmlns:dc="http://purl.org/dc/elements/1.1/"
   xmlns:cc="http://creativecommons.org/ns#"
   xmlns:rdf="http://www.w3.org/1999/02/22-rdf-syntax-ns#"
   xmlns:svg="http://www.w3.org/2000/svg"
   xmlns="http://www.w3.org/2000/svg"
   xmlns:sodipodi="http://sodipodi.sourceforge.net/DTD/sodipodi-0.dtd"
   xmlns:inkscape="http://www.inkscape.org/namespaces/inkscape"
   width="209.34499mm"
   height="228.79961mm"
   viewBox="0 0 741.77357 810.70726"
   id="svg2"
   version="1.1"
   inkscape:version="0.91 r13725"
   inkscape:export-filename="C:\wamp\www\la-buena-leche\images\bebe.png"
   inkscape:export-xdpi="96"
   inkscape:export-ydpi="96"
   sodipodi:docname="bebe.svg">
  <defs
     id="defs4" />
  <sodipodi:namedview
     id="base"
     pagecolor="#ffffff"
     bordercolor="#666666"
     borderopacity="1.0"
     inkscape:pageopacity="0.0"
     inkscape:pageshadow="2"
     inkscape:zoom="0.7"
     inkscape:cx="109.79998"
     inkscape:cy="519.63638"
     inkscape:document-units="px"
     inkscape:current-layer="layer1"
     showgrid="false"
     inkscape:window-width="1920"
     inkscape:window-height="1017"
     inkscape:window-x="-8"
     inkscape:window-y="-8"
     inkscape:window-maximized="1"
     fit-margin-top="0"
     fit-margin-left="0"
     fit-margin-right="0"
     fit-margin-bottom="0" />
  <metadata
     id="metadata7">
    <rdf:RDF>
      <cc:Work
         rdf:about="">
        <dc:format>image/svg+xml</dc:format>
        <dc:type
           rdf:resource="http://purl.org/dc/dcmitype/StillImage" />
        <dc:title></dc:title>
      </cc:Work>
    </rdf:RDF>
  </metadata>
  <g
     inkscape:label="Capa 1"
     inkscape:groupmode="layer"
     id="layer1"
     transform="translate(-1.5807595,-5.9058525)">
    <path
       style="fill:#000000"
       d="m 527.0921,807.35306 c 40.87014,-31.43482 128.98856,-141.17326 128.98856,-160.63609 0,-6.6373 -51.85037,24.46476 -79.29147,47.56246 -9.02284,7.59461 -21.94184,13.82851 -28.70897,13.85294 -17.74943,0.0675 -16.17592,-27.76208 3.55527,-62.87105 22.48886,-40.01615 42.3282,-61.39109 79.02569,-85.14249 47.04174,-30.44645 56.67824,-25.08543 11.05647,6.15101 -48.41723,33.15044 -110.08556,113.52395 -95.58965,124.58379 2.70203,2.06153 18.08855,-7.44463 34.19213,-21.12491 26.76393,-22.73639 73.51863,-49.31129 86.75598,-49.31129 31.58202,0 -68.61524,151.76455 -124.10478,187.97631 -15.90194,10.37742 -29.56062,9.4823 -15.87923,-1.04068 z m 52.43127,-1.29067 c 3.74417,-5.56936 9.20659,-10.1261 12.13879,-10.1261 2.93214,0 27.15835,-21.25534 53.83605,-47.23415 26.67764,-25.97874 47.22023,-43.44625 45.65006,-38.81667 -2.69248,7.93898 -28.06365,34.48682 -80.46732,84.19943 -24.51677,23.25774 -43.69815,30.63135 -31.15758,11.97749 z m 79.85938,-32.06595 c 65.769,-75.9994 78.80999,-78.76227 20.32661,-4.30643 -20.0879,25.57419 -41.09449,46.49847 -46.68127,46.49847 -7.08704,0 0.88029,-12.75509 26.35466,-42.19204 z m 33.57652,23.44595 c 9.75656,-10.11064 25.03633,-29.01531 33.9551,-42.01045 12.14091,-17.69 16.27171,-20.6209 16.43811,-11.66296 0.32537,17.50416 -42.67282,72.4546 -56.52509,72.23791 -10.37083,-0.16197 -9.71756,-2.14 6.13188,-18.5645 z M 20.381747,616.51047 c -6.787239,-8.4301 -4.633585,-27.64811 4.101285,-36.59739 11.789766,-12.07913 10.322481,-16.30432 -8.747971,-25.19063 -19.6301114,-9.14711 -18.8108138,-21.53223 2.263458,-34.21532 14.002055,-8.42681 14.233698,-9.43056 5.830409,-25.26308 -4.813037,-9.0682 -7.327251,-21.06781 -5.587137,-26.66582 4.640848,-14.92991 43.286041,-12.96589 64.894146,3.29803 9.847417,7.4119 19.772373,13.48757 22.055443,13.50143 2.28309,0.0139 3.51348,-17.11794 2.73419,-38.07074 -0.89905,-24.17342 0.89333,-39.10438 4.9045,-40.85532 9.0529,-3.95179 43.09056,34.83828 50.84219,57.94087 6.10643,18.19933 9.47271,20.00609 48.52216,26.04295 44.4139,6.86617 66.95237,3.8108 45.19234,-6.12639 -9.06469,-4.1396 -11.30034,-9.0449 -8.71156,-19.11423 2.68815,-10.45576 1.00577,-13.54553 -7.37548,-13.54553 -28.59271,0 -43.22576,-26.06225 -33.1651,-59.06885 6.86213,-22.51296 40.52266,-66.7449 60.78677,-79.87743 50.12592,-32.485 79.19524,28.34273 43.01269,90.00437 -8.82419,15.03797 -18.7074,29.37388 -21.96272,31.85757 -3.25532,2.48371 -4.53445,7.28094 -2.84251,10.66057 1.69196,3.3796 0.19305,13.04264 -3.33087,21.47339 -4.80454,11.49451 -1.38995,9.43979 13.65131,-8.21456 29.12227,-34.18167 48.59369,-87.3322 49.08992,-133.99926 0.61953,-58.25776 -13.43852,-94.89668 -54.68856,-142.53292 C 241.30962,123.58659 184.28183,89.532149 103.80874,69.662058 56.534658,57.989316 46.510871,54.291116 50.108594,49.849721 c 1.420778,-1.753944 29.359567,2.884162 62.086236,10.306899 46.15874,10.46928 71.2017,20.666662 111.6683,45.4709 28.6909,17.58625 55.04142,31.62526 58.55668,31.1978 9.96229,-1.21143 50.88292,-45.798824 46.62312,-50.800875 C 325.17214,81.479233 227.1668,51.198039 177.59761,39.231646 162.55959,35.601354 122.33853,30.019036 88.217531,26.826486 54.09651,23.633956 23.459931,17.664781 20.136218,13.56165 3.7230197,-6.7004863 158.91269,15.919781 271.88515,50.256281 l 77.88238,23.67134 36.95355,-11.125961 c 72.41944,-21.804029 181.28486,-8.392779 238.71332,29.407309 36.29397,23.889131 87.79842,88.112861 96.36736,120.165751 4.03568,15.09566 5.68262,44.86198 4.13237,74.6841 -2.19354,42.195 -1.07111,51.26798 7.53141,60.87884 13.27007,14.82538 12.97378,25.07058 -0.46807,16.18971 -15.5136,-10.24957 -16.35435,-9.59399 -27.65389,21.56276 -10.19616,28.11442 -10.19206,28.73776 0.26742,40.76731 15.26416,17.55549 13.12465,37.14098 -6.53378,59.81098 -20.95763,24.16829 -26.36059,20.83476 -10.13714,-6.25441 14.48806,-24.19148 12.55788,-44.44774 -4.52139,-47.4497 -6.90975,-1.21452 -11.70026,-4.25233 -10.64556,-6.75073 36.80495,-87.18752 47.92452,-146.44445 37.02566,-197.3128 C 702.4668,189.61278 649.96094,125.26122 604.3239,98.004439 558.12235,70.410477 486.4364,57.869351 429.14299,67.357356 377.68761,75.878567 347.66923,90.851837 314.23394,124.67435 l -24.36994,24.6522 23.46264,34.71137 c 12.90446,19.09123 27.68873,43.06536 32.85401,53.27585 5.16526,10.21047 12.69022,18.56448 16.72218,18.56448 8.36274,0 36.1641,32.30698 36.1641,42.025 0,3.53666 -7.57113,-1.43432 -16.8247,-11.04663 -9.25359,-9.61229 -18.56191,-17.47692 -20.68517,-17.47692 -2.12325,0 -2.92874,20.50533 -1.78995,45.5674 1.89382,41.67804 0.39826,49.5241 -17.52132,91.92354 -10.77554,25.49589 -18.4253,48.6863 -16.99951,51.53425 1.42576,2.84795 14.31232,12.04719 28.63682,20.4428 31.47648,18.44839 90.93583,20.90832 124.47528,5.14971 41.63096,-19.5604 43.64998,-19.80294 21.96862,-2.63904 -27.0556,21.41843 -72.54473,33.59605 -102.87405,27.53976 -12.64654,-2.52533 -37.31111,-13.46078 -54.81018,-24.30099 l -31.81643,-19.7095 -16.03187,14.09268 c -19.24932,16.92099 -20.52606,26.67479 -3.49157,26.67479 15.0024,0 96.66549,28.64904 127.12276,44.59721 41.0236,21.48098 9.68107,16.48596 -49.21449,-7.84322 -40.41457,-16.69488 -81.82379,-27.86734 -131.3746,-35.44566 l -72.35804,-11.06651 -13.07978,-29.99719 c -7.19388,-16.49846 -18.72305,-34.50659 -25.62036,-40.01808 l -12.54059,-10.02086 3.77739,45.51536 3.77738,45.51541 -27.966556,-17.49504 C 67.070908,472.65933 27.217227,465.60473 27.217227,477.6059 c 0,10.38935 18.858065,26.80456 38.278646,33.32011 18.181621,6.09987 18.455257,6.61588 5.468373,10.31228 -7.519015,2.1401 -22.898831,5.72272 -34.177362,7.9613 -11.278533,2.23862 -20.506402,6.43704 -20.506402,9.32982 0,2.89278 11.563417,9.69277 25.696475,15.11106 l 25.696494,9.85143 -20.228103,14.73368 c -11.125468,8.10347 -20.228121,17.87389 -20.228121,21.71202 0,8.67525 -5.301704,9.32258 52.2266,-6.37696 26.916123,-7.34546 61.242233,-13.17746 76.280273,-12.96002 23.61346,0.34145 18.76648,2.61544 -35.54444,16.6761 -95.218034,24.65122 -95.406889,24.68763 -99.797913,19.23375 z M 276.78513,461.77538 c 1.73116,-5.56934 1.47598,-15.44227 -0.56708,-21.93985 -3.26294,-10.37714 -4.64053,-9.76146 -11.32805,5.06304 -4.18733,9.28226 -7.70054,19.15519 -7.80711,21.93986 -0.36208,9.45967 16.5379,5.11673 19.70224,-5.06305 z m -14.42766,-27.60846 c 0,-2.18956 -5.23413,-9.21324 -11.63141,-15.60821 -14.16826,-14.16315 -10.30646,-36.38083 9.04422,-52.03315 28.90863,-23.38351 47.73799,10.65608 23.50751,42.4966 -9.80845,12.88895 -10.33583,15.62424 -3.01249,15.62424 10.79174,0 34.56621,-37.15933 39.54939,-61.81544 5.18333,-25.64653 -5.39346,-46.19617 -23.77695,-46.19617 -20.73653,0 -57.29994,33.69358 -71.09525,65.51507 -6.94822,16.02736 -8.42875,44.40862 -2.68646,51.4975 4.50027,5.5556 40.10144,6.01684 40.10144,0.51956 z m 14.28175,-32.08425 c 17.40099,-18.47768 15.29261,-39.41486 -3.36265,-33.39238 -13.63976,4.40331 -29.8285,31.99097 -24.73866,42.15778 5.32182,10.63017 11.71338,8.6365 28.10131,-8.7654 z m 296.1193,-20.39803 c -12.84335,-33.31223 -38.34603,-51.46576 -72.52662,-51.62654 -19.67487,-0.0925 -25.04177,-1.96361 -19.13932,-6.67258 12.62375,-10.07116 56.33259,-7.94922 69.42365,3.37032 15.65645,13.53778 35.73485,54.51387 33.52011,68.40788 -1.18571,7.43827 -4.94594,2.9441 -11.27782,-13.47908 z m -188.98618,-7.10856 c -23.70794,-7.87259 -25.78178,-17.43695 -3.78087,-17.43695 6.55161,0 16.36595,6.07567 21.80962,13.50145 5.44371,7.4258 8.90107,13.1047 7.68305,12.61977 -1.21807,-0.4849 -12.78835,-4.39285 -25.7118,-8.68427 z"
       id="path3347"
       inkscape:connector-curvature="0" />
  </g>
</svg>
