<?xml version="1.0" encoding="UTF-8" standalone="no"?>
<!-- Created with Inkscape (http://www.inkscape.org/) -->

<svg
   xmlns:dc="http://purl.org/dc/elements/1.1/"
   xmlns:cc="http://creativecommons.org/ns#"
   xmlns:rdf="http://www.w3.org/1999/02/22-rdf-syntax-ns#"
   xmlns:svg="http://www.w3.org/2000/svg"
   xmlns="http://www.w3.org/2000/svg"
   xmlns:sodipodi="http://sodipodi.sourceforge.net/DTD/sodipodi-0.dtd"
   xmlns:inkscape="http://www.inkscape.org/namespaces/inkscape"
   width="208.19791mm"
   height="83.201653mm"
   viewBox="0 0 737.70912 294.809"
   id="svg3349"
   version="1.1"
   inkscape:version="0.91 r13725"
   inkscape:export-filename="C:\wamp\www\la-buena-leche\images\letra.png"
   inkscape:export-xdpi="96"
   inkscape:export-ydpi="96"
   sodipodi:docname="letra.svg">
  <defs
     id="defs3351" />
  <sodipodi:namedview
     id="base"
     pagecolor="#ffffff"
     bordercolor="#666666"
     borderopacity="1.0"
     inkscape:pageopacity="0.0"
     inkscape:pageshadow="2"
     inkscape:zoom="1.979899"
     inkscape:cx="174.17861"
     inkscape:cy="170.70927"
     inkscape:document-units="px"
     inkscape:current-layer="layer1"
     showgrid="false"
     inkscape:window-width="1920"
     inkscape:window-height="1017"
     inkscape:window-x="-8"
     inkscape:window-y="-8"
     inkscape:window-maximized="1"
     fit-margin-top="0"
     fit-margin-left="0"
     fit-margin-right="0"
     fit-margin-bottom="0" />
  <metadata
     id="metadata3354">
    <rdf:RDF>
      <cc:Work
         rdf:about="">
        <dc:format>image/svg+xml</dc:format>
        <dc:type
           rdf:resource="http://purl.org/dc/dcmitype/StillImage" />
        <dc:title></dc:title>
      </cc:Work>
    </rdf:RDF>
  </metadata>
  <g
     inkscape:label="Capa 1"
     inkscape:groupmode="layer"
     id="layer1"
     transform="translate(-4.6560981,-3.2777727)">
    <path
       style="fill:#000000"
       d="m 414.12367,293.77075 c -8.78072,-3.82793 -15.0661,-3.66079 -26.43787,0.70293 -3.47024,1.33168 -4.43436,-0.17891 -4.43436,-6.94766 0,-4.75715 1.25272,-8.64933 2.78383,-8.64933 1.5311,0 5.28927,-2.50544 8.35148,-5.56766 4.85909,-4.8591 5.56765,-9.27942 5.56765,-34.73366 0,-27.91814 0.29322,-29.35815 6.8535,-33.6566 15.53065,-10.17608 43.25541,-7.23334 43.25541,4.59117 0,4.07377 -1.28129,5.44272 -4.08659,4.36623 -6.6904,-2.56735 -8.44064,3.77498 -8.44064,30.58628 0,21.1015 -0.90405,26.44044 -5.30317,31.31806 -5.3006,5.87716 -5.29834,5.88 4.70743,5.88 5.50579,0 10.78477,-1.25272 11.73104,-2.78382 3.54076,-5.72906 6.95958,-2.46974 6.95958,6.63489 0,7.41431 -1.33296,9.77593 -6.26361,11.09727 -10.29934,2.76012 -25.14429,1.56469 -35.24368,-2.8381 z m 53.33856,-2.33335 c -5.76943,-4.16792 -6.26363,-6.70037 -6.26363,-32.09691 0,-24.93537 0.59369,-28.12508 6.20823,-33.35581 7.86876,-7.33087 16.3088,-9.44785 28.5279,-7.15553 11.84102,2.22138 18.1566,10.66123 18.1566,24.26361 0,11.13927 -11.01547,27.43244 -18.54647,27.43244 -2.46608,0 -3.72344,1.96443 -3.11822,4.8717 1.12733,5.41522 9.48874,5.53985 22.36065,0.33325 6.51859,-2.6367 7.65553,-4.71343 7.65553,-13.98358 0,-25.19786 14.27246,-41.33025 36.56519,-41.33025 12.59074,0 13.5437,0.48969 13.5437,6.95956 0,5.48468 -1.41176,6.95957 -6.66172,6.95957 -8.11342,0 -10.054,4.5017 -9.99863,23.19425 0.0582,19.63512 2.35438,22.50534 16.48776,20.60966 18.57787,-2.49181 19.02963,-3.5187 18.99881,-43.18611 l -0.0276,-35.41563 15.65511,-0.83489 15.6551,-0.83488 0,12.76409 c 0,11.75684 0.42492,12.53668 5.38464,9.88231 8.97569,-4.80363 24.68532,-3.43392 30.80512,2.6859 4.69429,4.69428 5.56765,9.27942 5.56765,29.23017 0,13.0144 0.93955,23.64336 2.08787,23.6199 5.91731,-0.12082 8.38854,-5.91474 10.07437,-23.6199 1.60764,-16.88374 2.97034,-20.5094 10.20158,-27.14231 5.27147,-4.83528 11.45751,-7.65551 16.79194,-7.65551 10.24895,0 23.56547,6.49826 25.92684,12.65193 5.27338,13.74221 -3.48874,35.34499 -16.31372,40.22104 -4.58951,1.74493 -6.35629,4.05553 -5.26854,6.89018 2.09044,5.44759 3.64239,5.36924 20.49783,-1.03533 13.78582,-5.23821 13.949,-5.23671 13.949,0.12805 0,3.82846 -4.30729,7.43359 -14.61508,12.23258 -18.57028,8.64568 -38.70569,9.21448 -46.60368,1.31648 -5.53107,-5.53108 -5.56041,-5.53111 -14.61509,-0.0115 -10.31406,6.28857 -27.79268,7.33252 -32.27815,1.9279 -1.65454,-1.99363 -3.37383,-14.83404 -3.82063,-28.53425 -0.61838,-18.95997 -1.73205,-24.90873 -4.66336,-24.90873 -3.06274,0 -3.74246,5.84039 -3.32085,28.53421 l 0.53009,28.53424 -15.46998,0 c -13.61405,0 -15.46995,-0.66792 -15.46995,-5.56766 0,-6.9528 -2.02886,-6.9528 -12.52722,0 -14.58027,9.65612 -44.9745,5.41666 -49.71396,-6.9342 -1.41833,-3.69612 -3.40609,-3.20853 -13.11633,3.21737 -14.38057,9.51664 -39.5269,12.14384 -49.21878,5.14223 z m 36.94821,-46.25123 c 2.44536,-11.1337 -4.22176,-19.42414 -11.05809,-13.7505 -4.50944,3.7425 -5.39057,11.13268 -2.57824,21.6241 2.33477,8.70992 11.10638,3.6452 13.63633,-7.8736 z m 213.91037,5.06119 c 4.6808,-6.26943 5.02087,-8.50506 2.22663,-14.63779 -2.07334,-4.55045 -5.09559,-6.8965 -8.13902,-6.31797 -3.74424,0.71176 -5.03394,4.28996 -5.69233,15.79303 -0.94906,16.58102 2.07523,17.92648 11.60472,5.16273 z m -560.5594,-58.35935 c -5.35887,-1.62709 -16.32045,-3.07702 -24.35906,-3.22205 -14.02469,-0.253 -14.61563,-0.57321 -14.61509,-7.91919 3.1e-4,-4.21053 1.16381,-7.65553 2.58555,-7.65553 1.42174,0 4.55354,-1.96855 6.95957,-4.37459 3.41366,-3.41366 4.37459,-10.70718 4.37459,-33.20386 0,-27.73532 0.27481,-29.04546 7.24197,-34.52584 10.29511,-8.098131 23.34853,-9.877779 35.42901,-4.830228 10.85033,4.533568 11.6573,11.153738 1.67768,13.763468 -4.83297,1.26385 -5.37509,4.06128 -5.37509,27.73718 0,22.42366 -0.85628,27.42015 -5.76969,33.66654 -5.72954,7.28392 -5.73081,7.33499 -0.18124,7.33499 4.82185,0 10.70081,-1.66395 20.95182,-5.93011 3.78872,-1.57673 4.51885,13.58415 0.79827,16.57561 -5.56093,4.47116 -19.50816,5.68368 -29.71829,2.58361 z m 44.66119,-2.8532 c -8.58082,-4.34229 -11.99717,-18.71982 -10.64081,-44.78128 0.7817,-15.01973 2.15878,-19.94643 6.45327,-23.08748 8.50153,-6.21812 18.18459,-7.68113 27.51893,-4.15781 5.57126,2.10291 8.87577,2.251 9.48444,0.42501 0.51376,-1.54131 7.57006,-2.80237 15.68066,-2.80237 l 14.74653,0 1.98792,29.16542 1.98791,29.16543 8.08802,-4.18246 c 7.63371,-3.94756 8.088,-3.86796 8.088,1.41717 0,12.80642 -38.9054,28.35093 -46.88711,18.73357 -3.05538,-3.68152 -4.47385,-3.72089 -11.0198,-0.30585 -9.2326,4.81669 -16.54823,4.93455 -25.48796,0.41065 z m 31.04067,-18.03143 c 0.65332,-2.67944 1.11262,-13.01439 1.02063,-22.96657 -0.14957,-16.18325 -0.75543,-18.09488 -5.73488,-18.09488 -4.94934,0 -5.66014,2.13345 -6.40038,19.21059 -0.458,10.56583 -0.18413,20.90079 0.60859,22.96657 2.06578,5.38335 9.10359,4.63595 10.50604,-1.11571 z m 80.20709,19.22378 c -9.56742,-2.85025 -10.49188,-10.43115 -1.54579,-12.67647 l 7.09884,-1.78168 0,-34.74481 0,-34.7448 -7.15319,0 c -5.82583,0 -6.98811,-1.1623 -6.26361,-6.26361 0.87477,-6.159302 1.547,-6.263618 40.36419,-6.263618 35.52448,0 40.24266,0.574092 47.14955,5.73704 10.78719,8.063478 13.97943,19.143808 8.70308,30.208438 -3.9681,8.32119 -3.83584,9.21766 2.43518,16.50814 11.84201,13.76718 7.37492,34.78975 -9.19289,43.26261 -13.5115,6.90983 -34.28489,2.0076 -34.28489,-8.0908 0,-3.97885 1.67972,-5.25904 6.26361,-4.77375 5.74885,0.60865 6.26361,-0.48073 6.26361,-13.25599 0,-13.04973 -0.46919,-13.9733 -7.5115,-14.78611 -7.30208,-0.8428 -7.53492,-0.42385 -8.35148,15.0276 -0.70464,13.33332 -2.00029,16.75812 -8.04058,21.2536 -8.01025,5.96162 -25.29999,8.55225 -35.93413,5.38421 z m 55.04252,-57.65927 c 10.88978,-7.62748 7.8287,-22.35801 -5.64419,-27.16089 -4.28954,-1.52917 -4.8717,0.24881 -4.8717,14.8789 0,9.13858 0.97399,16.61559 2.1644,16.61559 1.19045,0 4.94862,-1.95011 8.35149,-4.3336 z m 49.76787,54.91925 c -3.75585,-4.15017 -4.6072,-11.35199 -4.6072,-38.97357 l 0,-33.88269 16.70295,0 16.70298,0 0,27.3743 c 0,28.54688 0.77626,31.68171 7.23174,29.20451 2.98487,-1.1454 3.90356,-7.97945 3.90356,-29.03837 l 0,-27.54044 15.04318,0 15.04315,0 1.98707,29.15298 c 1.81048,26.56242 2.41881,28.92192 6.84579,26.55268 3.68563,-1.9725 5.2018,-7.39515 6.27965,-22.45939 1.61797,-22.61321 6.21838,-29.46029 22.21836,-33.06887 19.79564,-4.46463 34.85487,8.35568 31.81546,27.08531 -1.6705,10.29414 -14.0244,25.63 -20.64637,25.63 -5.99462,0 -2.34213,6.84903 4.16594,7.81184 3.16846,0.46874 10.27352,-1.03323 15.78894,-3.33773 l 10.02811,-4.19 0,-27.98032 0,-27.98033 13.75483,0 c 7.56516,0 14.47206,1.16046 15.34864,2.5788 0.87659,1.41836 8.48561,1.86752 16.90892,0.99815 23.10682,-2.38482 26.36712,1.71324 26.36712,33.14221 0,23.85829 0.19432,24.61695 5.56766,21.74121 4.72251,-2.52741 5.56766,-5.82884 5.56766,-21.74914 0,-12.33524 1.45886,-20.85227 4.25575,-24.84537 5.15659,-7.36205 19.48125,-10.50353 29.87511,-6.5518 4.82907,1.83602 7.62655,1.90376 7.62655,0.1847 0,-1.49322 7.51634,-2.71493 16.70297,-2.71493 l 16.70296,0 0,29.23018 c 0,16.0766 0.67043,29.23018 1.48985,29.23018 0.81942,0 4.57759,-2.02314 8.35148,-4.49591 6.52888,-4.27787 6.86163,-4.21724 6.86163,1.25026 0,13.41502 -35.78761,28.88815 -44.71392,19.3325 -3.17486,-3.39872 -4.86232,-3.45005 -10.84116,-0.32979 -10.1344,5.28891 -20.54165,4.59469 -28.82755,-1.92301 l -7.1863,-5.65275 -10.54682,5.65275 c -13.08532,7.01332 -23.66489,7.21356 -29.68458,0.56185 -3.54145,-3.91323 -4.60721,-10.67493 -4.60721,-29.23018 0,-19.60126 -0.78502,-24.13929 -4.17574,-24.13929 -3.44666,0 -4.17575,5.10368 -4.17575,29.23019 l 0,29.23018 -15.31105,0 c -14.44951,0 -15.31105,-0.38909 -15.31105,-6.91489 l 0,-6.91488 -11.28436,5.88173 c -17.52767,9.13593 -34.5976,10.06203 -44.91156,2.43657 l -8.49185,-6.27827 -10.48851,5.89487 c -12.98406,7.29744 -23.42202,7.51436 -30.30656,0.62983 -5.15902,-5.15902 -5.42529,-5.15939 -13.2232,-0.0183 -10.14208,6.68658 -23.84014,6.77507 -29.79727,0.19251 z m 273.77555,-35.2746 c 0,-21.80665 -0.43668,-23.66253 -5.56766,-23.66253 -5.09381,0 -5.56765,1.85588 -5.56765,21.80665 0,22.30114 0.93594,25.51842 7.42355,25.51842 2.80201,0 3.71176,-5.79964 3.71176,-23.66254 z m -146.03656,-8.19587 c 4.87844,-11.67574 2.71378,-18.85089 -5.34041,-17.70171 -4.92935,0.70332 -6.04998,3.0359 -6.75777,14.06632 -0.68257,10.63759 0.025,13.22318 3.62184,13.22318 2.46377,0 6.26842,-4.30353 8.47634,-9.58779 z M 61.205376,81.205516 C 57.860485,79.857833 53.745076,76.179068 52.059994,73.030495 47.417068,64.355091 31.732598,65.189096 25.675457,74.433461 22.23581,79.683024 19.040255,81.333449 13.547825,80.697073 5.4954736,79.764103 0.93816609,70.089641 8.5510244,70.089641 c 5.1995786,0 9.9572726,-8.960086 18.4041776,-34.66025 4.424517,-13.461845 5.386895,-19.673415 3.162918,-20.41474 -1.758133,-0.58604 -3.196606,-3.466582 -3.196606,-6.4012084 0,-4.7040576 2.114803,-5.3356699 17.865313,-5.3356699 l 17.865305,0 8.927402,27.1423163 c 9.842472,29.924447 12.209937,34.024015 16.925405,29.308541 3.883391,-3.883382 10.796089,-1.514754 10.796089,3.699279 0,2.132841 1.879082,3.877894 4.175742,3.877894 6.29413,0 5.07345,-4.351487 -4.175742,-14.885728 -13.290691,-15.137257 -9.681802,-29.242729 8.652072,-33.816917 10.88671,-2.716159 27.53769,5.100666 27.53769,12.927605 0,4.87393 -0.74236,5.52412 -3.3406,2.925884 -3.75334,-3.753351 -13.36236,-4.546431 -13.36236,-1.102865 0,1.230751 4.38452,6.487383 9.74339,11.681411 5.35887,5.194014 9.89185,11.39019 10.07331,13.769278 0.18145,2.379075 1.74735,-4.412191 3.47978,-15.091708 2.64352,-16.29589 4.26866,-19.981262 10.10944,-22.925541 7.54621,-3.803941 36.73913,-4.896821 40.13352,-1.502438 1.14834,1.148335 3.54938,2.118091 5.33566,2.155026 1.7863,0.0369 3.07382,2.2292 2.86117,4.871694 -0.46889,5.826493 3.36501,6.37253 5.50929,0.78465 2.42253,-6.313037 22.00379,-11.22102 29.26468,-7.335113 8.25416,4.417497 7.68695,11.355008 -0.92837,11.355008 -8.50199,0 -11.76538,9.948073 -8.10622,24.710909 2.72302,10.985971 7.36775,13.18927 18.71184,8.876251 7.20643,-2.739879 7.43623,-3.517587 7.43623,-25.166779 l 0,-22.339514 13.91913,0 13.91914,0 0,23.894513 c 0,29.754344 5.57297,31.100275 9.76943,2.359427 2.5284,-17.316754 3.62763,-19.636259 10.97442,-23.157478 6.19038,-2.966961 10.05459,-3.199774 15.98099,-0.962802 4.86206,1.835219 7.8164,1.931912 7.8164,0.255818 0,-1.481993 5.95043,-2.312723 13.22318,-1.846048 l 13.22318,0.848477 0.81007,23.060359 c 0.48519,13.812187 1.88072,22.398636 3.47978,21.410372 1.46833,-0.907497 2.66972,-5.374452 2.66972,-9.92659 0,-21.409184 17.53273,-39.126147 34.50409,-34.866611 9.28866,2.3313 10.0106,12.070869 0.98971,13.352038 -5.0844,0.722103 -6.43111,2.935952 -7.15329,11.759528 -1.84286,22.515958 3.7058,28.2332 20.13554,20.747322 6.4408,-2.934626 7.04292,-4.818243 7.7865,-24.358501 l 0.80592,-21.177917 13.22318,-0.848477 13.22318,-0.848488 0,24.047043 c 0,17.993271 0.87602,23.758404 3.47978,22.900471 2.07311,-0.683079 4.0468,-8.185458 4.88245,-18.559131 1.44768,-17.971155 6.33908,-25.299498 16.88655,-25.299498 2.59523,0 6.24614,-3.737911 8.15715,-8.35148 2.57253,-6.2106243 5.29028,-8.3514903 10.60195,-8.3514903 l 7.14266,0 -8.00121,8.3514903 -8.00123,8.35148 11.65614,0 c 6.95762,0 11.65614,1.296056 11.65614,3.215284 0,1.923737 2.04494,1.364624 5.09089,-1.391908 5.56262,-5.034105 24.16357,-6.288439 26.92777,-1.815846 1.1532,1.865917 3.45435,1.865917 6.94087,0 8.08976,-4.329532 16.1877,-3.320661 22.28467,2.776297 4.42556,4.425567 5.56766,9.27942 5.56766,23.66253 0,16.595783 2.61287,22.344137 6.95957,15.311051 3.10283,-5.020486 7.36609,-2.913408 6.45723,3.191436 -0.55627,3.736354 -5.70916,8.65926 -13.75216,13.138369 -11.13802,6.20269 -13.84406,6.715907 -20.18276,3.827811 -7.01876,-3.197951 -7.32016,-4.254748 -7.32016,-25.665581 0,-30.254646 -5.14501,-28.563491 -6.15524,2.023209 l -0.80433,24.35352 -12.52723,-0.29196 -12.52722,-0.291958 -0.81303,-21.277735 c -0.62718,-16.413018 -1.74099,-21.277734 -4.8717,-21.277734 -3.09273,0 -4.05867,3.872486 -4.05867,16.271513 0,12.733365 -1.21004,17.366582 -5.56486,21.307659 -7.69532,6.964149 -28.22974,7.206246 -35.72867,0.42124 -5.26995,-4.768266 -6.16066,-4.81972 -12.04819,-0.695959 -7.87492,5.515806 -22.81285,5.791482 -27.2027,0.50202 -2.80763,-3.382989 -5.07357,-3.15713 -15.76278,1.571213 -10.43738,4.616947 -14.02629,5.013095 -21.89363,2.416635 -5.17542,-1.708037 -10.87714,-4.873492 -12.67049,-7.034344 -2.76778,-3.334971 -4.45733,-3.04405 -11.17794,1.92474 -4.35456,3.219458 -11.44335,5.697892 -15.75292,5.507631 -10.04368,-0.443404 -22.47552,-0.440626 -32.2314,0.0069 -4.23111,0.194216 -10.10486,-1.829638 -13.05275,-4.49748 -4.94355,-4.473851 -5.85368,-4.504732 -11.71739,-0.397635 -7.94888,5.56763 -22.82662,5.774866 -27.3037,0.380326 -2.95693,-3.562883 -4.2305,-3.515361 -10.17498,0.379612 -3.73726,2.448739 -11.88334,4.452252 -18.10238,4.452252 -8.93085,0 -13.11956,-1.812146 -19.92939,-8.621979 -7.47559,-7.47559 -8.59349,-10.510496 -8.40769,-22.825641 0.17189,-11.394284 -0.5936,-13.89367 -3.87013,-12.636349 -2.24641,0.862003 -4.60829,1.567303 -5.24862,1.567303 -0.64033,0 -1.16423,7.322187 -1.16423,16.271513 0,12.185254 -1.2693,17.420206 -5.05437,20.845643 -8.09243,7.323558 -20.21132,8.314324 -31.31289,2.559973 -8.72986,-4.524993 -11.01476,-4.696019 -19.03215,-1.424587 -13.58128,5.54174 -32.78925,5.176694 -39.335497,-0.747565 -3.015592,-2.729074 -5.482903,-3.637631 -5.482903,-2.018999 0,1.618631 -3.9451,4.318231 -8.766894,5.99911 -10.080431,3.514058 -10.098762,3.514311 -18.19344,0.252913 z M 177.2482,56.301486 c 0,-14.536434 -4.74712,-28.804964 -8.75856,-26.325758 -1.30721,0.807897 -2.37675,10.164027 -2.37675,20.791409 0,17.466608 0.53476,19.322504 5.56765,19.322504 4.81825,0 5.56766,-1.855896 5.56766,-13.788155 z m 309.00486,0 c 0,-14.536434 -4.74712,-28.804964 -8.75856,-26.325758 -1.30721,0.807897 -2.37675,10.164027 -2.37675,20.791409 0,17.466608 0.53477,19.322504 5.56766,19.322504 4.81823,0 5.56765,-1.855896 5.56765,-13.788155 z m -163.15175,6.600903 c 0.92939,-2.421883 1.68975,-10.56458 1.68975,-18.094878 0,-10.314297 -1.02999,-13.691462 -4.17574,-13.691462 -3.28349,0 -4.17575,3.866431 -4.17575,18.094889 0,17.180507 2.97589,23.296641 6.66174,13.691451 z M 44.710016,48.514979 c -2.851691,-12.099101 -5.439699,-12.741461 -8.688314,-2.156504 -2.871922,9.357571 -2.69867,9.812023 3.740643,9.812023 5.947397,0 6.537012,-0.912305 4.947671,-7.655519 z M 252.41155,8.8454372 c 0,-4.8253017 1.85588,-5.5676645 13.91913,-5.5676645 12.06326,0 13.91914,0.7423628 13.91914,5.5676645 0,4.8252898 -1.85588,5.5676528 -13.91914,5.5676528 -12.06325,0 -13.91913,-0.742363 -13.91913,-5.5676528 z m 163.31788,3.7117688 c -1.02074,-1.020738 -1.85588,-3.5261896 -1.85588,-5.5676537 0,-2.5982467 4.17573,-3.7117796 13.91913,-3.7117796 12.06325,0 13.91914,0.7423628 13.91914,5.5676645 0,4.7110908 -1.85589,5.5676528 -12.06324,5.5676528 -6.63481,0 -12.89842,-0.835146 -13.91915,-1.855884 z"
       id="path3370"
       inkscape:connector-curvature="0" />
  </g>
</svg>
